<svg xmlns="http://www.w3.org/2000/svg" width="1280" height="720" viewBox="0 0 1280 720" role="img" aria-labelledby="title desc">
  <title id="title">JavaScript Quizbook and Effective TypeScript cross reading map</title>
  <desc id="desc">A study map connecting JavaScript runtime topics with TypeScript code review topics.</desc>
  <rect width="1280" height="720" fill="#f8f3e8" />
  <rect x="48" y="48" width="1184" height="624" rx="28" fill="#fffaf0" stroke="#1f2937" stroke-width="3" />
  <text x="90" y="112" font-family="Georgia, 'Apple SD Gothic Neo', serif" font-size="42" fill="#111827">JS 런타임 감각 ↔ TS 리뷰 감각</text>
  <text x="92" y="154" font-family="'Apple SD Gothic Neo', sans-serif" font-size="20" fill="#4b5563">자바스크립트 퀴즈북 13일 + 이펙티브 타입스크립트 14일을 주제별로 다시 읽는 지도</text>

  <g font-family="'Apple SD Gothic Neo', sans-serif" font-size="22" fill="#111827">
    <rect x="92" y="220" width="330" height="70" rx="18" fill="#fef3c7" stroke="#92400e" />
    <text x="118" y="263">값·비교·강제 변환</text>
    <line x1="422" y1="255" x2="858" y2="255" stroke="#92400e" stroke-width="3" stroke-dasharray="10 8" />
    <rect x="858" y="220" width="330" height="70" rx="18" fill="#eef2ff" stroke="#3730a3" />
    <text x="884" y="263">타입 집합·assertion 경계</text>

    <rect x="92" y="322" width="330" height="70" rx="18" fill="#dcfce7" stroke="#166534" />
    <text x="118" y="365">참조·복사·컬렉션</text>
    <line x1="422" y1="357" x2="858" y2="357" stroke="#166534" stroke-width="3" stroke-dasharray="10 8" />
    <rect x="858" y="322" width="330" height="70" rx="18" fill="#e0f2fe" stroke="#075985" />
    <text x="884" y="365">유효 상태·API 경계</text>

    <rect x="92" y="424" width="330" height="70" rx="18" fill="#fee2e2" stroke="#991b1b" />
    <text x="118" y="467">스코프·클로저·이벤트 루프</text>
    <line x1="422" y1="459" x2="858" y2="459" stroke="#991b1b" stroke-width="3" stroke-dasharray="10 8" />
    <rect x="858" y="424" width="330" height="70" rx="18" fill="#f3e8ff" stroke="#6b21a8" />
    <text x="884" y="467">narrowing·DOM·런타임 검증</text>

    <rect x="92" y="526" width="330" height="70" rx="18" fill="#ffedd5" stroke="#9a3412" />
    <text x="118" y="569">모듈·동적 import</text>
    <line x1="422" y1="561" x2="858" y2="561" stroke="#9a3412" stroke-width="3" stroke-dasharray="10 8" />
    <rect x="858" y="526" width="330" height="70" rx="18" fill="#f1f5f9" stroke="#334155" />
    <text x="884" y="569">JS 마이그레이션·JSDoc</text>
  </g>

  <circle cx="640" cy="357" r="62" fill="#111827" />
  <text x="640" y="350" text-anchor="middle" font-family="'Apple SD Gothic Neo', sans-serif" font-size="21" fill="#fffaf0">코드 리뷰</text>
  <text x="640" y="380" text-anchor="middle" font-family="'Apple SD Gothic Neo', sans-serif" font-size="21" fill="#fffaf0">질문</text>

  <text x="1036" y="638" text-anchor="middle" font-family="Georgia, serif" font-size="22" fill="#111827">SEOJing Study Map</text>
</svg>
