<svg xmlns="http://www.w3.org/2000/svg" width="1200" height="630" viewBox="0 0 1200 630" role="img" aria-label="글 위에 영상을 붙인다는 것 — SEOJing 요약 쇼츠 파이프라인 중 시작은 “요약 영상”이 아니라 “포스트 상단”이었다 설명 다이어그램">
<defs>
  <marker id="arrow" markerWidth="12" markerHeight="12" refX="10" refY="6" orient="auto">
    <path d="M2,2 L10,6 L2,10 Z" fill="#111111"/>
  </marker>
  <pattern id="dots" width="18" height="18" patternUnits="userSpaceOnUse">
    <circle cx="4" cy="4" r="1.8" fill="#111111" opacity="0.18"/>
  </pattern>
</defs>
<rect width="1200" height="630" fill="#f2eadb"/>
<rect width="1200" height="630" fill="url(#dots)" opacity="0.55"/>
<circle cx="1040" cy="120" r="138" fill="#ff5a78" opacity="0.7"/>
<circle cx="160" cy="520" r="156" fill="#1fb6a6" opacity="0.58"/>
<path d="M72 118 C260 54 375 136 540 92 C705 48 835 88 1108 54" fill="none" stroke="#111111" stroke-width="4" opacity="0.18"/>
<text x="78" y="118" font-family="Arial, sans-serif" font-size="30" font-weight="800" fill="#111111">INLINE VISUAL ANCHOR</text>
<text x="78" y="166" font-family="Arial, sans-serif" font-size="52" font-weight="900" fill="#111111">시작은 “요약 영상”이 아니라 “포스트 상단”이었다</text>
<text x="80" y="212" font-family="Arial, sans-serif" font-size="24" fill="#333333">경계/계약 구조 · 글 위에 영상을 붙인다는 것 — SEOJing 요약 쇼츠 파이프라인</text>
<g>
  <rect x="86" y="285" width="190" height="88" rx="24" fill="#fff8e9" stroke="#111111" stroke-width="3"/>
  <text x="181" y="338" text-anchor="middle" font-family="Arial, sans-serif" font-size="25" font-weight="700" fill="#111111">요청</text>
</g>
<g>
  <rect x="346" y="285" width="190" height="88" rx="24" fill="#fff8e9" stroke="#111111" stroke-width="3"/>
  <text x="441" y="338" text-anchor="middle" font-family="Arial, sans-serif" font-size="25" font-weight="700" fill="#111111">경계</text>
</g>
<g>
  <rect x="606" y="285" width="190" height="88" rx="24" fill="#fff8e9" stroke="#111111" stroke-width="3"/>
  <text x="701" y="338" text-anchor="middle" font-family="Arial, sans-serif" font-size="25" font-weight="700" fill="#111111">시작은 “요약 영상”이 아니라 “포스트 상단”이었다</text>
</g>
<g>
  <rect x="866" y="285" width="190" height="88" rx="24" fill="#fff8e9" stroke="#111111" stroke-width="3"/>
  <text x="961" y="338" text-anchor="middle" font-family="Arial, sans-serif" font-size="25" font-weight="700" fill="#111111">권한/실패조건</text>
</g>
<path d="M 284 329 L 332 329" stroke="#111111" stroke-width="5" stroke-linecap="round" marker-end="url(#arrow)"/>
<path d="M 544 329 L 592 329" stroke="#111111" stroke-width="5" stroke-linecap="round" marker-end="url(#arrow)"/>
<path d="M 804 329 L 852 329" stroke="#111111" stroke-width="5" stroke-linecap="round" marker-end="url(#arrow)"/>
<text x="80" y="524" font-family="Arial, sans-serif" font-size="22" fill="#333333">읽는 중 머릿속에 남겨둘 구조: 경계/계약 구조를 먼저 보고, 세부 설명을 다시 읽는다.</text>
<text x="1088" y="562" text-anchor="end" font-family="Arial, sans-serif" font-size="22" font-weight="800" fill="#111111">SEOJing</text>
</svg>
